<?xml version="1.0" encoding="UTF-8" standalone="no"?>
<!-- Created with Inkscape (http://www.inkscape.org/) -->

<svg
   xmlns:dc="http://purl.org/dc/elements/1.1/"
   xmlns:cc="http://creativecommons.org/ns#"
   xmlns:rdf="http://www.w3.org/1999/02/22-rdf-syntax-ns#"
   xmlns:svg="http://www.w3.org/2000/svg"
   xmlns="http://www.w3.org/2000/svg"
   xmlns:sodipodi="http://sodipodi.sourceforge.net/DTD/sodipodi-0.dtd"
   xmlns:inkscape="http://www.inkscape.org/namespaces/inkscape"
   width="820"
   height="200"
   viewBox="0 0 216.95834 52.916665"
   version="1.1"
   id="svg8"
   sodipodi:docname="Logo Roggeo.svg"
   inkscape:version="0.92.2 (5c3e80d, 2017-08-06)"
   inkscape:export-filename="C:\Users\geovani\Documents\Arts\logo roggeo.png"
   inkscape:export-xdpi="56.287838"
   inkscape:export-ydpi="56.287838">
  <defs
     id="defs2" />
  <sodipodi:namedview
     id="base"
     pagecolor="#ffffff"
     bordercolor="#666666"
     borderopacity="1.0"
     inkscape:pageopacity="0.0"
     inkscape:pageshadow="2"
     inkscape:zoom="0.9899495"
     inkscape:cx="401.09521"
     inkscape:cy="70.010407"
     inkscape:document-units="mm"
     inkscape:current-layer="layer1"
     showgrid="false"
     showguides="true"
     inkscape:guide-bbox="true"
     inkscape:window-width="1366"
     inkscape:window-height="705"
     inkscape:window-x="-8"
     inkscape:window-y="-8"
     inkscape:window-maximized="1"
     units="px" />
  <metadata
     id="metadata5">
    <rdf:RDF>
      <cc:Work
         rdf:about="">
        <dc:format>image/svg+xml</dc:format>
        <dc:type
           rdf:resource="http://purl.org/dc/dcmitype/StillImage" />
        <dc:title />
      </cc:Work>
    </rdf:RDF>
  </metadata>
  <g
     inkscape:label="Layer 1"
     inkscape:groupmode="layer"
     id="layer1"
     transform="translate(0,-244.08334)">
    <g
       aria-label="Roggeo"
       style="font-style:normal;font-weight:normal;font-size:117.35508728px;line-height:1.25;font-family:sans-serif;letter-spacing:0px;word-spacing:0px;fill:#2c89a0;fill-opacity:1;stroke:none;stroke-width:2.93387723"
       id="text855"
       transform="matrix(0.41258056,0,0,0.4137258,72.182145,377.72953)"
       inkscape:export-xdpi="56.287838"
       inkscape:export-ydpi="56.287838">
      <path
         d="m -51.416355,-234.83333 v -59.76629 h -10.944738 v -9.9706 H -29.9853 q 10.142506,0 16.101944,1.60447 5.9594376,1.54716 9.8559933,6.64706 3.8965556,5.04261 3.8965556,12.60651 0,15.81543 -16.4457569,19.88389 l 14.0963631,28.99496 h 9.741389 v 9.9706 H -9.9868008 l -18.1648252,-37.24649 h -11.231249 v 27.27589 h 10.199808 v 9.9706 h -33.178026 v -9.9706 z m 12.03348,-37.24649 h 9.397575 q 6.818973,0 10.027901,-0.85953 3.26623,-0.91684 5.329113,-3.61005 2.062882,-2.75051 2.062882,-7.33469 0,-3.89655 -2.120184,-6.58976 -2.062883,-2.69321 -5.157206,-3.38084 -3.037022,-0.74493 -9.340273,-0.74493 h -10.199808 z"
         style="font-style:normal;font-variant:normal;font-weight:normal;font-stretch:normal;font-family:Rockwell;-inkscape-font-specification:Rockwell;fill:#2c89a0;stroke-width:2.93387723"
         id="path871"
         inkscape:connector-curvature="0" />
      <path
         d="m 11.444257,-252.59704 q 0,-12.83571 8.480738,-21.02994 8.480739,-8.25153 20.686127,-8.25153 11.976178,0 20.571521,8.13693 8.595343,8.07962 8.595343,21.14454 0,13.06492 -8.595343,21.20185 -8.538041,8.13692 -20.571521,8.13692 -12.377295,0 -20.800731,-8.25153 -8.366134,-8.25153 -8.366134,-21.08724 z m 11.51776,0 q 0,8.19423 5.099903,13.46604 5.157206,5.21451 12.549202,5.21451 7.506599,0 12.549201,-5.27181 5.099903,-5.32912 5.099903,-13.40874 0,-8.13692 -5.157206,-13.40874 -5.157206,-5.27181 -12.491898,-5.27181 -7.678507,0 -12.663806,5.38642 -4.985299,5.38641 -4.985299,13.29413 z"
         style="font-style:normal;font-variant:normal;font-weight:normal;font-stretch:normal;font-family:Rockwell;-inkscape-font-specification:Rockwell;fill:#2c89a0;stroke-width:2.93387723"
         id="path873"
         inkscape:connector-curvature="0" />
      <path
         d="m 146.39114,-280.33135 v 9.68409 h -9.97059 v 41.31495 q 0,8.36613 -0.85954,12.37729 -0.85953,4.06847 -4.18307,8.25153 -3.26623,4.24037 -9.85599,7.10549 -6.58976,2.86511 -14.72669,2.86511 -12.262687,0 -21.889472,-7.39199 l 7.105484,-7.90772 q 7.220089,5.61562 15.700828,5.61562 4.69879,0 8.70995,-1.83367 4.01116,-1.77637 5.95944,-4.35497 2.00558,-2.57861 2.5786,-4.928 0.57302,-2.29209 0.57302,-7.79311 v -5.0426 q -2.5786,3.26623 -8.07962,6.18865 -5.50102,2.92241 -12.03348,2.92241 -11.918878,0 -19.425478,-8.25153 -7.5066,-8.25153 -7.5066,-20.28501 0,-13.17952 8.25153,-21.25915 8.308832,-8.13692 19.196268,-8.13692 11.00204,0 19.59738,8.76725 v -7.90772 z m -56.328146,28.30733 q 0,8.42344 4.870695,13.75255 4.927997,5.32912 12.549201,5.32912 7.4493,0 12.83571,-5.32912 5.38642,-5.38641 5.38642,-13.80985 0,-8.53804 -5.38642,-13.69525 -5.38641,-5.2145 -12.4919,-5.2145 -7.10548,0 -12.434593,5.1572 -5.329113,5.09991 -5.329113,13.80985 z"
         style="font-style:normal;font-variant:normal;font-weight:normal;font-stretch:normal;font-family:Rockwell;-inkscape-font-specification:Rockwell;fill:#2c89a0;stroke-width:2.93387723"
         id="path875"
         inkscape:connector-curvature="0" />
      <path
         d="m 218.70663,-280.33135 v 9.68409 h -9.97059 v 41.31495 q 0,8.36613 -0.85954,12.37729 -0.85953,4.06847 -4.18306,8.25153 -3.26624,4.24037 -9.856,7.10549 -6.58976,2.86511 -14.72669,2.86511 -12.26269,0 -21.88947,-7.39199 l 7.10548,-7.90772 q 7.22009,5.61562 15.70083,5.61562 4.69879,0 8.70995,-1.83367 4.01116,-1.77637 5.95944,-4.35497 2.00558,-2.57861 2.5786,-4.928 0.57302,-2.29209 0.57302,-7.79311 v -5.0426 q -2.5786,3.26623 -8.07962,6.18865 -5.50102,2.92241 -12.03348,2.92241 -11.91888,0 -19.42548,-8.25153 -7.5066,-8.25153 -7.5066,-20.28501 0,-13.17952 8.25153,-21.25915 8.30883,-8.13692 19.19627,-8.13692 11.00204,0 19.59738,8.76725 v -7.90772 z m -56.32814,28.30733 q 0,8.42344 4.87069,13.75255 4.928,5.32912 12.5492,5.32912 7.4493,0 12.83571,-5.32912 5.38642,-5.38641 5.38642,-13.80985 0,-8.53804 -5.38642,-13.69525 -5.38641,-5.2145 -12.4919,-5.2145 -7.10548,0 -12.43459,5.1572 -5.32911,5.09991 -5.32911,13.80985 z"
         style="font-style:normal;font-variant:normal;font-weight:normal;font-stretch:normal;font-family:Rockwell;-inkscape-font-specification:Rockwell;fill:#2c89a0;stroke-width:2.93387723"
         id="path877"
         inkscape:connector-curvature="0" />
      <path
         d="m 280.76502,-249.84653 h -46.64406 q 1.03144,7.67851 6.07404,12.4346 5.0426,4.75609 12.89301,4.75609 11.40316,0 18.05023,-9.16837 l 9.62678,4.24037 q -4.69879,7.27739 -12.20539,10.83013 -7.5066,3.49544 -15.70082,3.49544 -12.72111,0 -21.77487,-7.90771 -8.99646,-7.96502 -8.99646,-21.43106 0,-12.77841 8.76725,-21.02994 8.82455,-8.25153 20.2277,-8.25153 11.17395,0 20.22771,8.07962 9.11107,8.02232 9.45488,23.95236 z m -11.23125,-7.90772 q -1.14604,-5.84483 -6.07404,-10.54362 -4.928,-4.75609 -12.09078,-4.75609 -6.53247,0 -11.17395,4.29767 -4.64149,4.24037 -5.67293,11.00204 z"
         style="font-style:normal;font-variant:normal;font-weight:normal;font-stretch:normal;font-family:Rockwell;-inkscape-font-specification:Rockwell;fill:#2c89a0;stroke-width:2.93387723"
         id="path879"
         inkscape:connector-curvature="0" />
      <path
         d="m 289.70417,-252.59704 q 0,-12.83571 8.48074,-21.02994 8.48073,-8.25153 20.68612,-8.25153 11.97618,0 20.57152,8.13693 8.59535,8.07962 8.59535,21.14454 0,13.06492 -8.59535,21.20185 -8.53804,8.13692 -20.57152,8.13692 -12.37729,0 -20.80073,-8.25153 -8.36613,-8.25153 -8.36613,-21.08724 z m 11.51776,0 q 0,8.19423 5.0999,13.46604 5.15721,5.21451 12.5492,5.21451 7.5066,0 12.5492,-5.27181 5.09991,-5.32912 5.09991,-13.40874 0,-8.13692 -5.15721,-13.40874 -5.1572,-5.27181 -12.4919,-5.27181 -7.6785,0 -12.6638,5.38642 -4.9853,5.38641 -4.9853,13.29413 z"
         style="font-style:normal;font-variant:normal;font-weight:normal;font-stretch:normal;font-family:Rockwell;-inkscape-font-specification:Rockwell;fill:#2c89a0;stroke-width:2.93387723"
         id="path881"
         inkscape:connector-curvature="0" />
    </g>
    <path
       style="opacity:1;fill:#0088aa;fill-opacity:1;stroke:none;stroke-width:6.26457787;stroke-linecap:round;stroke-linejoin:round;stroke-miterlimit:4;stroke-dasharray:none;stroke-opacity:1;paint-order:markers fill stroke"
       d="M 80.009766 19.830078 A 75.77156 75.77156 0 0 0 4.2382812 95.601562 A 75.77156 75.77156 0 0 0 80.009766 171.37305 A 75.77156 75.77156 0 0 0 155.78125 95.601562 A 75.77156 75.77156 0 0 0 80.009766 19.830078 z M 80.109375 35.654297 A 8.2185801 8.2504501 0.0013375785 0 1 84.019531 36.779297 A 8.2185801 8.2504501 0.0013375785 0 1 88.070312 43.398438 L 121.26562 62.964844 A 8.2185801 8.2504501 0.0013375785 0 1 129.07031 63.224609 A 8.2185801 8.2504501 0.0013375785 0 1 132.01562 74.511719 A 8.2185801 8.2504501 0.0013375785 0 1 128.65625 77.6875 L 128.51953 113.99023 A 8.2185801 8.2504501 0.0013375785 0 1 129.12305 114.30664 A 8.2185801 8.2504501 0.0013375785 0 1 132.07031 125.5918 A 8.2185801 8.2504501 0.0013375785 0 1 120.82617 128.55078 A 8.2185801 8.2504501 0.0013375785 0 1 120.73242 128.48828 L 88.292969 146.81836 A 8.2185801 8.2504501 0.0013375785 0 1 87.1875 151.4668 A 8.2185801 8.2504501 0.0013375785 0 1 75.945312 154.42383 A 8.2185801 8.2504501 0.0013375785 0 1 71.882812 147.63672 L 38.847656 128.16602 A 8.2185801 8.2504501 0.0013375785 0 1 30.894531 127.97852 A 8.2185801 8.2504501 0.0013375785 0 1 27.949219 116.69141 A 8.2185801 8.2504501 0.0013375785 0 1 30.171875 114.22266 L 30.318359 75.298828 A 8.2185801 8.2504501 0.0013375785 0 1 28.404297 64.736328 A 8.2185801 8.2504501 0.0013375785 0 1 38.941406 61.410156 L 71.716797 42.892578 A 8.2185801 8.2504501 0.0013375785 0 1 72.775391 39.736328 A 8.2185801 8.2504501 0.0013375785 0 1 80.109375 35.654297 z M 72.892578 48.25 L 42.851562 65.224609 A 8.2185801 8.2504501 0.0013375785 0 1 42.591797 73.066406 A 8.2185801 8.2504501 0.0013375785 0 1 35.537109 77.142578 L 35.404297 112.61914 A 8.2185801 8.2504501 0.0013375785 0 1 39.191406 113.73438 A 8.2185801 8.2504501 0.0013375785 0 1 42.517578 124.2832 L 73.417969 142.49414 A 8.2185801 8.2504501 0.0013375785 0 1 84.242188 140.17969 A 8.2185801 8.2504501 0.0013375785 0 1 86.308594 141.91602 L 117.31641 124.39648 A 8.2185801 8.2504501 0.0013375785 0 1 117.88086 117.26367 A 8.2185801 8.2504501 0.0013375785 0 1 123.29688 113.36133 L 123.42578 78.453125 A 8.2185801 8.2504501 0.0013375785 0 1 120.77148 77.46875 A 8.2185801 8.2504501 0.0013375785 0 1 117.50781 66.796875 L 86.626953 48.59375 A 8.2185801 8.2504501 0.0013375785 0 1 75.722656 51.023438 A 8.2185801 8.2504501 0.0013375785 0 1 72.892578 48.25 z "
       id="path1806"
       transform="matrix(0.26458333,0,0,0.26458333,0,244.08334)"
       inkscape:export-xdpi="56.287838"
       inkscape:export-ydpi="56.287838" />
  </g>
</svg>
